# xmcd
#
# Track frame offsets:
#	150
#	20786
#	36042
#	49769
#	65786
#	82715
#	101970
#	115754
#	130522
#	143977
#	156883
#
# Disc length: 2305 seconds
#
# Revision: 1
# Processed by: cddbd v1.5PL3 Copyright (c) Steve Scherf et al.
# Submitted via: audiograbber 1.83.01
#
DISCID=9208ff0b
DTITLE=Los Amos De Nuevo Leon - Completamente Tuyos
DYEAR=2001
DGENRE=Latin
TTITLE0=Completamente Tuyo
TTITLE1=Radio Esta Tocando Tu Canción
TTITLE2=Campamocha
TTITLE3=Locuras del Amor
TTITLE4=Prieta Querida
TTITLE5=Treinta Años
TTITLE6=Puro Dolor
TTITLE7=Mi Borrchera
TTITLE8=Pena en el Alma
TTITLE9=Almacenes Trabado
TTITLE10=Completamente Tuyo [Radio Edit]
EXTD=
EXTT0=
EXTT1=
EXTT2=
EXTT3=
EXTT4=
EXTT5=
EXTT6=
EXTT7=
EXTT8=
EXTT9=
EXTT10=
PLAYORDER=
